<?xml version="1.0" encoding="UTF-8" standalone="no"?>
<!-- Generator: Adobe Fireworks CS6, Export SVG Extension by Aaron Beall (http://fireworks.abeall.com) . Version: 0.6.1  -->
<svg id="Grav-logo.fw-Page%201" xmlns:rdf="http://www.w3.org/1999/02/22-rdf-syntax-ns#" xmlns="http://www.w3.org/2000/svg" xml:space="preserve" viewBox="0 0 145.15372 145" height="145" width="145.15" version="1.1" y="0px" x="0px" xmlns:cc="http://creativecommons.org/ns#" xmlns:dc="http://purl.org/dc/elements/1.1/"><metadata id="metadata3346"><rdf:RDF><cc:Work rdf:about=""><dc:format>image/svg+xml</dc:format><dc:type rdf:resource="http://purl.org/dc/dcmitype/StillImage"/><dc:title/></cc:Work></rdf:RDF></metadata><g id="Layer_1_1" transform="matrix(0.78226914,0,0,0.78226914,0,-0.50206033)"><g id="g3330" fill="#221e1f"><path id="path3332" d="m98.413,69.506c1.0857-1.0845,1.0857-2.8422,0-3.9258-1.0861-1.0845-2.8442-1.0845-3.9299,0-1.0862,1.0836-1.0862,2.8413,0,3.9258,1.0857,1.0835,2.8438,1.0835,3.9299,0z"/><path id="path3334" d="m88.611,71.446c-1.0862,1.0835-1.0862,2.8413,0,3.9258,1.0842,1.0835,2.8438,1.0835,3.9299,0,1.0842-1.0845,1.0842-2.8423,0-3.9258-1.0861-1.0845-2.8457-1.0845-3.9299,0z"/><path id="path3336" d="m105.66,72.89c-1.6986-1.6973-4.452-1.6958-6.1496,0l-3.6169,3.613c-1.6991,1.6973-1.6991,4.4478,0,6.1431l3.971,3.9682c1.6985,1.6973,4.452,1.6958,6.1496,0l3.6169-3.613c1.6986-1.6973,1.6986-4.4478,0-6.1446l-3.971-3.9667z"/><path id="path3338" d="m140.03,59.434c4.5892-8.7306-1.9027-13.83-6.365-18.016-7.1479-6.7119-14.277-9.6136-22.42-0.32-8.1373,9.2941-2.9673,20.073,4.476,25.393,7.4467,5.32,19.713,1.6713,24.309-7.0569zm-12.33-3.5803c-2.8677-3.4336,2.4932-9.6674,5.8566-5.945,6.1951,6.8582-2.9839,9.3785-5.8566,5.945z"/><path id="path3340" d="M92.779,0.6418c-51.24,0-92.779,41.494-92.779,92.676s41.539,92.682,92.779,92.682c51.237,0,92.776-41.497,92.776-92.682,0-51.181-41.538-92.676-92.776-92.676zm50.17,107.87c-9.6748-6.387-15.203-11.784-20.019-21.46-3.2932,6.6295-10.983,16.488-23.953,24.242-6.4753,20.123-37.279,58.634-47.248,53.175-2.9518-1.6148-3.5124-3.7419-2.8458-5.9362,0.715-5.5011,12.107-18.144,12.107-18.144s0.2408,2.6529,3.8851,8.2418c-4.8135-14.927,7.9532-33.346,11.335-39.616,5.3144-1.6919,5.6993-8.5082,5.6993-8.5082,0.3399-10.536-4.3715-18.164-8.9373-22.726,3.2804,3.9995,4.3422,10.044,4.498,15.579v0.0308c0.0166,0.6254,0.0166,1.2391,0.0141,1.8509-0.1558,4.5819-1.5432,10.911-4.5121,10.911l0.0088,0.04c-3.0523-0.1307-6.8206,0.5201-10.188,1.5719l-7.4433,1.7768s3.9695-0.1815,6.113,1.6685c-2.3872,3.8833-7.6929,8.7023-13.611,11.44-8.61,3.9888-11.085-3.9477-6.7131-9.1092,1.0734-1.2616,2.1576-2.3251,3.1827-3.1964-0.6598-0.682-1.0759-1.5953-1.1853-2.7544-0.001-0.006-0.0054-0.0117-0.0068-0.0176-0.6002-2.6334-0.2691-6.0523,3.4611-11.486,0.7365-1.1503,1.6194-2.3295,2.6772-3.5272,0.0338-0.041,0.0621-0.079,0.0963-0.119,0.0454-0.0551,0.0962-0.1073,0.1431-0.161,0.0268-0.0298,0.0522-0.0595,0.0805-0.0907,0.266-0.295,0.55-0.591,0.852-0.876,4.446-4.548,11.467-9.278,22.532-13.524,12.904-18.947,17.629-22.501,17.629-22.501,1.429-1.459,3.926-3.273,4.844-3.736-6.739-11.697-8.1-28.186-6.334-32.629-0.1431,0.2406-0.2745,0.4864-0.3839,0.7411,0.6544-1.5216,1.093-2.0109,1.7728-2.8115,1.8402-2.1749,8.0777-3.3145,10.317,1.2928,1.1931,2.4563,1.4183,5.6381,1.3787,8.0238-4.9394-0.2572-9.4198,5.3766-9.4198,5.3766s4.0911-1.9285,9.1737-1.9626c0,0,1.3547,1.1767,3.045,3.3867-2.2822,4.2809-6.0339,13.35-3.3171,22.87,0.4503,1.8763,1.1311,3.4887,1.9765,4.8605,0.0322,0.0591,0.0591,0.1186,0.0918,0.1796,0.0679,0.0888,0.1289,0.1624,0.1924,0.2444,4.4921,6.7558,12.726,7.5461,12.726,7.5461-3.8762-1.9319-7.0331-5.0088-9.0887-8.7394-1.0685-1.9953-1.7229-3.6799-2.1249-5.0088-2.1801-8.4116,1.0295-13.322,2.8668-16.614,4.2274-6.5505,11.929-10.516,20.206-9.5713,11.617,1.3241,19.961,11.806,18.633,23.407-0.8097,7.0881-5.0425,12.951-10.858,16.142,1.3987,3.7814-0.0962,8.3662-0.0962,8.3662,3.5221,4.4258,3.6774,6.9773,3.5558,9.3473-4.4764-0.7522-8.8254,2.2656-8.8254,2.2656s8.6359-2.0592,13.653,2.411c3.2628,3.5057,5.439,6.6739,6.7357,9.0136,1.8573,3.337,10.482,3.575,9.4993,9.5766-0.9826,5.9928-7.56,6.0494-17.872-0.7464z"/></g></g></svg>
