<?xml version="1.0" encoding="UTF-8" standalone="no"?>
<svg
   xmlns:dc="http://purl.org/dc/elements/1.1/"
   xmlns:cc="http://creativecommons.org/ns#"
   xmlns:rdf="http://www.w3.org/1999/02/22-rdf-syntax-ns#"
   xmlns:svg="http://www.w3.org/2000/svg"
   xmlns="http://www.w3.org/2000/svg"
   xmlns:sodipodi="http://sodipodi.sourceforge.net/DTD/sodipodi-0.dtd"
   xmlns:inkscape="http://www.inkscape.org/namespaces/inkscape"
   viewBox="0 0 145 145"
   id="svg3054"
   version="1.1"
   inkscape:version="0.48.5 r10040"
   width="100%"
   height="100%"
   sodipodi:docname="HTML5-opt.svg">
  <metadata
     id="metadata3082">
    <rdf:RDF>
      <cc:Work
         rdf:about="">
        <dc:format>image/svg+xml</dc:format>
        <dc:type
           rdf:resource="http://purl.org/dc/dcmitype/StillImage" />
        <dc:title>HTML5 Logo</dc:title>
      </cc:Work>
    </rdf:RDF>
  </metadata>
  <defs
     id="defs3080" />
  <sodipodi:namedview
     pagecolor="#ffffff"
     bordercolor="#666666"
     borderopacity="1"
     objecttolerance="10"
     gridtolerance="10"
     guidetolerance="10"
     inkscape:pageopacity="0"
     inkscape:pageshadow="2"
     inkscape:window-width="1280"
     inkscape:window-height="700"
     id="namedview3078"
     showgrid="false"
     fit-margin-top="0"
     fit-margin-left="0"
     fit-margin-right="0"
     fit-margin-bottom="0"
     inkscape:zoom="3.1724138"
     inkscape:cx="72.5"
     inkscape:cy="72.5"
     inkscape:window-x="0"
     inkscape:window-y="28"
     inkscape:window-maximized="1"
     inkscape:current-layer="svg3054" />
  <title
     id="title3056">HTML5 Logo</title>
  <polygon
     points="107.644,470.877 74.633,100.62 437.367,100.62 404.321,470.819 255.778,512 "
     id="polygon3058"
     transform="matrix(0.28320313,0,0,0.28320313,1.3506575,-2.56e-6)"
     style="fill:#e44d26" />
  <polygon
     points="404.27,130.894 256,130.894 256,480.523 376.03,447.246 "
     id="polygon3060"
     transform="matrix(0.28320313,0,0,0.28320313,1.3506575,-2.56e-6)"
     style="fill:#f16529" />
  <polygon
     points="256,268.217 195.91,268.217 191.76,221.716 256,221.716 256,176.305 255.843,176.305 142.132,176.305 143.219,188.488 154.38,313.627 256,313.627 "
     id="polygon3062"
     transform="matrix(0.28320313,0,0,0.28320313,1.3506575,-2.56e-6)"
     style="fill:#ebebeb" />
  <polygon
     points="255.801,386.206 205.227,372.55 201.994,336.333 177.419,336.333 156.409,336.333 162.771,407.634 255.791,433.457 256,433.399 256,386.153 "
     id="polygon3064"
     transform="matrix(0.28320313,0,0,0.28320313,1.3506575,-2.56e-6)"
     style="fill:#ebebeb" />
  <path
     d="m 32.044777,-2.56e-6 h 6.535481 V 6.4570274 h 5.97842 V -2.56e-6 h 6.53576 V 19.553477 h -6.53548 v -6.54766 h -5.97842 v 6.54766 H 32.045057 V -2.56e-6 z"
     id="path3066"
     inkscape:connector-curvature="0" />
  <path
     d="m 59.688798,6.4842174 h -5.75355 V -2.56e-6 h 18.0457 V 6.4842174 h -5.7561 V 19.553477 h -6.53576 V 6.4842174 z"
     id="path3068"
     inkscape:connector-curvature="0" />
  <path
     d="m 74.844988,-2.56e-6 h 6.81471 l 4.19198,6.87050996 4.18772,-6.87050996 h 6.81727 V 19.553477 h -6.50858 V 9.8616974 l -4.49641,6.9523496 h -0.11244 l -4.49953,-6.9523496 v 9.6917796 h -6.39472 V -2.56e-6 z"
     id="path3070"
     inkscape:connector-curvature="0" />
  <path
     d="m 100.10925,-2.56e-6 h 6.53746 V 13.090207 h 9.1908 v 6.46327 H 100.10925 V -2.56e-6 z"
     id="path3072"
     inkscape:connector-curvature="0" />
  <polygon
     points="349.162,268.217 255.843,268.217 255.843,313.627 311.761,313.627 306.49,372.521 255.843,386.191 255.843,433.435 348.937,407.634 349.62,399.962 360.291,280.411 361.399,268.217 "
     id="polygon3074"
     transform="matrix(0.28320313,0,0,0.28320313,1.3506575,-2.56e-6)"
     style="fill:#ffffff" />
  <polygon
     points="255.843,176.305 255.843,204.509 255.843,221.605 255.843,221.716 365.385,221.716 365.385,221.716 365.531,221.716 366.442,211.509 368.511,188.488 369.597,176.305 "
     id="polygon3076"
     transform="matrix(0.28320313,0,0,0.28320313,1.3506575,-2.56e-6)"
     style="fill:#ffffff" />
</svg>
