<?xml version="1.0" encoding="UTF-8" standalone="no"?>
<svg id="svg3054" xmlns:rdf="http://www.w3.org/1999/02/22-rdf-syntax-ns#" xmlns="http://www.w3.org/2000/svg" height="100%" width="100%" version="1.1" xmlns:cc="http://creativecommons.org/ns#" xmlns:dc="http://purl.org/dc/elements/1.1/" viewBox="0 0 145 145">
 <metadata id="metadata3082">
  <rdf:RDF>
   <cc:Work rdf:about="">
    <dc:format>image/svg+xml</dc:format>
    <dc:type rdf:resource="http://purl.org/dc/dcmitype/StillImage"/>
    <dc:title>HTML5 Logo</dc:title>
   </cc:Work>
  </rdf:RDF>
 </metadata>
 <title id="title3056">HTML5 Logo</title>
 <polygon id="polygon3058" points="107.64,470.88,74.633,100.62,437.37,100.62,404.32,470.82,255.78,512" fill="#e44d26" transform="matrix(0.28320313,0,0,0.28320313,1.3506575,-2.56e-6)"/>
 <polygon id="polygon3060" points="404.27,130.89,256,130.89,256,480.52,376.03,447.25" fill="#f16529" transform="matrix(0.28320313,0,0,0.28320313,1.3506575,-2.56e-6)"/>
 <polygon id="polygon3062" points="256,268.22,195.91,268.22,191.76,221.72,256,221.72,256,176.3,255.84,176.3,142.13,176.3,143.22,188.49,154.38,313.63,256,313.63" fill="#ebebeb" transform="matrix(0.28320313,0,0,0.28320313,1.3506575,-2.56e-6)"/>
 <polygon id="polygon3064" points="255.8,386.21,205.23,372.55,201.99,336.33,177.42,336.33,156.41,336.33,162.77,407.63,255.79,433.46,256,433.4,256,386.15" fill="#ebebeb" transform="matrix(0.28320313,0,0,0.28320313,1.3506575,-2.56e-6)"/>
 <path id="path3066" d="m32.045-0.00000256h6.5355v6.457h5.9784v-6.457h6.5358v19.553h-6.5355v-6.5477h-5.9784v6.5477h-6.5359v-19.554z"/>
 <path id="path3068" d="m59.689,6.4842h-5.7536v-6.4842h18.046v6.4842h-5.7561v13.069h-6.5358v-13.069z"/>
 <path id="path3070" d="m74.845-0.00000256h6.8147l4.192,6.8705,4.1877-6.8705h6.8173v19.553h-6.5086v-9.6918l-4.4964,6.9523h-0.11244l-4.4995-6.9523v9.6918h-6.3947v-19.553z"/>
 <path id="path3072" d="m100.11-0.00000256h6.5375v13.09h9.1908v6.4633h-15.731v-19.553z"/>
 <polygon id="polygon3074" points="349.16,268.22,255.84,268.22,255.84,313.63,311.76,313.63,306.49,372.52,255.84,386.19,255.84,433.44,348.94,407.63,349.62,399.96,360.29,280.41,361.4,268.22" fill="#FFF" transform="matrix(0.28320313,0,0,0.28320313,1.3506575,-2.56e-6)"/>
 <polygon id="polygon3076" points="255.84,176.3,255.84,204.51,255.84,221.6,255.84,221.72,365.38,221.72,365.38,221.72,365.53,221.72,366.44,211.51,368.51,188.49,369.6,176.3" fill="#FFF" transform="matrix(0.28320313,0,0,0.28320313,1.3506575,-2.56e-6)"/>
</svg>
