<?xml version="1.0" encoding="UTF-8" standalone="no"?>
<!-- Created with Inkscape (http://www.inkscape.org/) -->

<svg
   xmlns:osb="http://www.openswatchbook.org/uri/2009/osb"
   xmlns:dc="http://purl.org/dc/elements/1.1/"
   xmlns:cc="http://creativecommons.org/ns#"
   xmlns:rdf="http://www.w3.org/1999/02/22-rdf-syntax-ns#"
   xmlns:svg="http://www.w3.org/2000/svg"
   xmlns="http://www.w3.org/2000/svg"
   xmlns:sodipodi="http://sodipodi.sourceforge.net/DTD/sodipodi-0.dtd"
   xmlns:inkscape="http://www.inkscape.org/namespaces/inkscape"
   width="120"
   height="120"
   viewBox="0 0 120 120"
   id="svg5625"
   version="1.1"
   inkscape:version="0.91 r13725"
   sodipodi:docname="logo.svg"
   inkscape:export-filename="/logo.png"
   inkscape:export-xdpi="90"
   inkscape:export-ydpi="90">
  <defs
     id="defs5627">
    <linearGradient
       id="linearGradient4273"
       osb:paint="solid">
      <stop
         style="stop-color:#691a99;stop-opacity:1;"
         offset="0"
         id="stop4275" />
    </linearGradient>
  </defs>
  <sodipodi:namedview
     id="base"
     pagecolor="#ffffff"
     bordercolor="#666666"
     borderopacity="1.0"
     inkscape:pageopacity="0.0"
     inkscape:pageshadow="2"
     inkscape:zoom="4.1583333"
     inkscape:cx="60"
     inkscape:cy="60"
     inkscape:document-units="px"
     inkscape:current-layer="layer3"
     showgrid="true"
     units="px"
     objecttolerance="10000"
     inkscape:snap-global="true"
     inkscape:window-width="1280"
     inkscape:window-height="701"
     inkscape:window-x="0"
     inkscape:window-y="1"
     inkscape:window-maximized="1"
     gridtolerance="10000"
     showguides="true"
     inkscape:guide-bbox="true">
    <inkscape:grid
       type="xygrid"
       id="grid5633"
       spacingx="0.5"
       spacingy="0.5" />
    <sodipodi:guide
       position="57.5,52.5"
       orientation="0,1"
       id="guide9461" />
  </sodipodi:namedview>
  <metadata
     id="metadata5630">
    <rdf:RDF>
      <cc:Work
         rdf:about="">
        <dc:format>image/svg+xml</dc:format>
        <dc:type
           rdf:resource="http://purl.org/dc/dcmitype/StillImage" />
        <dc:title></dc:title>
      </cc:Work>
    </rdf:RDF>
  </metadata>
  <g
     inkscape:groupmode="layer"
     id="layer3"
     inkscape:label="Layer 3"
     style="display:inline">
    <path
       style="fill:#9b26af;fill-opacity:1;stroke:none;stroke-width:3;stroke-miterlimit:4;stroke-dasharray:none"
       d="m 104.44336,9.46875 c -0.35375,0.011848 -0.70709,0.060954 -1.05859,0.1386719 -3.26294,0.9589511 -6.729764,3.9350171 -9.13477,5.4843751 -0.647688,0.520681 -1.257917,1.09631 -1.828125,1.71875 -0.57382,0.66318 -1.101515,1.375835 -1.59375,2.115234 -0.533013,0.785484 -0.990765,1.628087 -1.412109,2.492188 -0.476006,0.929426 -0.895109,1.891932 -1.292969,2.865234 -0.393226,1.018067 -0.743775,2.055751 -1.072266,3.101563 -0.316048,1.052288 -0.591977,2.120489 -0.832031,3.197265 -0.03369,0.158149 -0.05366,0.319551 -0.08398,0.478516 -1.005682,0.0092 -2.012449,-0.0064 -3.017578,-0.06055 -1.739363,-0.113144 -3.479359,-0.243134 -5.207032,-0.501953 -1.622481,-0.262775 -3.24332,-0.535434 -4.855468,-0.869141 -1.561636,-0.319899 -3.12208,-0.657502 -4.671876,-1.042968 -1.473901,-0.373645 -2.940534,-0.778033 -4.40625,-1.189454 -1.336311,-0.393541 -2.660268,-0.831518 -3.986328,-1.265625 -1.201408,-0.395515 -2.401531,-0.798196 -3.617187,-1.136718 -1.13677,-0.326974 -2.27061,-0.668164 -3.412109,-0.97461 -1.063995,-0.27463 -2.12314,-0.578729 -3.195313,-0.8125 -1.031883,-0.218506 -2.068898,-0.391019 -3.111328,-0.535156 -1.059568,-0.138356 -2.120003,-0.280096 -3.185547,-0.347656 -1.088608,-0.05759 -2.177313,-0.116309 -3.267578,-0.105469 -1.125542,0.03699 -2.251571,0.08669 -3.373047,0.205078 -1.130858,0.160928 -2.259554,0.373344 -3.361328,0.703125 -1.086162,0.347454 -2.164972,0.716939 -3.208985,1.203125 -3.5706,1.580124 -6.758003,3.415788 -10.021484,6.001953 -0.800122,0.585771 -1.585662,1.196501 -2.367187,1.8125 -0.711696,0.578422 -1.396168,1.195285 -2.060547,1.839844 -0.65819,0.629423 -1.325068,1.249252 -2.021485,1.826172 -0.644456,0.55079 -1.300104,1.086443 -1.914062,1.679687 -0.5415,0.534268 -1.082742,1.074889 -1.546875,1.695313 -0.3391951,0.455723 -0.6613716,0.924692 -0.9453126,1.425781 -0.189001,0.316055 -0.4068697,0.603063 -0.6191406,0.898438 -0.1346261,0.186607 -0.2326694,0.406621 -0.3652344,0.589843 l 7.8730466,-3.833984 c 0.06546,-0.193307 0.217822,-0.338561 0.326172,-0.505859 0.223652,-0.276821 0.360923,-0.624387 0.537109,-0.939454 0.274772,-0.451219 0.59437,-0.866992 0.921876,-1.271484 0.475266,-0.54906 0.993618,-1.046232 1.521484,-1.53125 0.635015,-0.535839 1.266065,-1.08138 1.898437,-1.621094 0.685608,-0.596141 1.33238,-1.241724 1.996094,-1.867187 0.295374,-0.284764 0.602373,-0.552793 0.912109,-0.816406 0.864609,-0.383835 1.738706,-0.737089 2.628907,-1.041016 1.071913,-0.383327 2.177946,-0.610273 3.287109,-0.808594 1.096823,-0.180155 2.205725,-0.236867 3.3125,-0.279297 1.073808,-0.03517 2.148021,-0.0018 3.220703,0.05469 1.051692,0.04862 2.099464,0.165492 3.144531,0.300781 1.032611,0.142081 2.06362,0.295014 3.089844,0.486328 1.072789,0.207356 2.13013,0.491536 3.191406,0.759766 1.149372,0.29254 2.29421,0.609147 3.4375,0.929687 1.219625,0.338068 2.427915,0.723041 3.640626,1.089844 1.342985,0.437831 2.693215,0.843658 4.046874,1.238281 1.480767,0.431 2.973295,0.811774 4.466797,1.183594 1.556386,0.391345 3.121954,0.737361 4.689453,1.068359 1.629465,0.326976 3.266,0.609117 4.904297,0.875 1.755578,0.27798 3.526194,0.405494 5.294922,0.525391 1.804508,0.12837 3.611641,0.1277 5.417969,0.0625 1.158358,-0.0691 2.293419,-0.305908 3.416016,-0.609375 -0.07895,1.028048 -0.145101,2.058151 -0.203125,3.087891 l -0.236329,4.597656 c -0.09368,1.487306 -0.203034,2.973611 -0.318359,4.458984 -0.118273,1.431186 -0.213498,2.86445 -0.318359,4.296875 -0.113589,1.446994 -0.200825,2.894845 -0.314453,4.341797 -0.111692,1.481181 -0.206113,2.96528 -0.308594,4.447266 -0.106016,1.485063 -0.21646,2.969142 -0.333985,4.453125 -0.118254,1.457687 -0.27465,2.911086 -0.451171,4.361328 -0.190905,1.443566 -0.422353,2.879565 -0.677735,4.310547 -0.264535,1.42675 -0.610769,2.833074 -0.972656,4.232422 -0.370622,1.382422 -0.76747,2.754461 -1.171875,4.125 -0.395571,1.336872 -0.811816,2.666231 -1.259766,3.982422 -0.447708,1.318445 -0.921673,2.626046 -1.423828,3.919921 -0.472894,1.236119 -1.001325,2.442107 -1.552734,3.636719 -0.50586,1.09817 -1.065837,2.164702 -1.621094,3.232422 -0.509283,1.060375 -1.16745,2.011329 -1.841797,2.945313 -0.719623,0.970014 -1.519073,1.860844 -2.345703,2.716794 -0.243269,0.26036 -0.498826,0.50334 -0.759765,0.73828 -0.617868,0.26483 -1.244321,0.50538 -1.873047,0.73633 -1.321996,0.48408 -2.682023,0.81613 -4.042969,1.13086 -1.416702,0.32907 -2.851677,0.53535 -4.292969,0.66797 -1.42979,0.11408 -2.863947,0.14862 -4.296875,0.16992 -1.377768,0.0177 -2.755231,-0.0289 -4.130859,-0.10937 -1.328682,-0.0886 -2.652848,-0.23984 -3.972657,-0.42969 -1.332131,-0.17636 -2.641154,-0.49529 -3.941406,-0.85547 -1.422889,-0.39145 -2.814394,-0.90411 -4.203125,-1.42187 -1.439929,-0.55597 -2.869357,-1.15321 -4.261719,-1.84375 -1.400271,-0.70968 -2.695322,-1.630943 -3.914062,-2.669926 -1.344586,-1.190071 -2.506461,-2.604336 -3.642578,-4.03125 -1.09813,-1.397133 -2.146148,-2.842251 -3.166016,-4.310547 -0.909197,-1.313234 -1.772458,-2.664742 -2.623047,-4.025391 -0.757736,-1.2046 -1.451418,-2.457089 -2.128906,-3.71875 -0.316262,-0.581391 -0.627886,-1.164821 -0.941406,-1.748047 L 8.4160156,78.552734 c -0.049637,0.02367 1.6462494,5.691889 3.5585934,8.695313 0.712035,1.262248 1.429523,2.520387 2.214844,3.728515 0.87647,1.362491 1.780302,2.703674 2.714844,4.017579 1.05239,1.46716 2.127696,2.912607 3.246094,4.318359 1.168046,1.45319 2.341422,2.9102 3.65625,4.20312 1.233999,1.11685 2.560617,2.09486 3.996093,2.86524 1.397997,0.72877 2.841592,1.32462 4.28711,1.92578 1.388396,0.54807 2.789175,1.05257 4.205078,1.50586 1.306468,0.38994 2.618721,0.77909 3.96289,0.97266 1.340719,0.20066 2.685244,0.35553 4.035157,0.45703 1.387965,0.10565 2.778429,0.1662 4.169922,0.1582 1.453569,-0.0111 2.906263,-0.0603 4.357421,-0.15625 1.449609,-0.0933 2.896856,-0.24188 4.324219,-0.55078 1.367577,-0.2922 2.732742,-0.61121 4.074219,-1.0293 1.273596,-0.44028 2.54464,-0.90201 3.761719,-1.51367 3.532115,-1.79552 6.836686,-4.11348 10.089843,-6.4668 0.952176,-0.73359 1.865429,-1.52335 2.683594,-2.439449 0.814073,-0.897908 1.606307,-1.8242 2.304688,-2.837891 0.670029,-0.977932 1.302107,-1.986644 1.816406,-3.078125 0.543823,-1.073223 1.080336,-2.151164 1.564453,-3.259766 0.526711,-1.208077 1.03589,-2.425377 1.494141,-3.667968 0.490529,-1.306227 0.960088,-2.621755 1.402344,-3.949219 0.444589,-1.327078 0.857159,-2.666879 1.240234,-4.017578 0.396473,-1.38235 0.799334,-2.762358 1.15625,-4.158203 0.346941,-1.420118 0.679508,-2.846072 0.933594,-4.291016 0.249477,-1.44975 0.47861,-2.90513 0.662109,-4.367187 0.162977,-1.459769 0.312235,-2.920594 0.421875,-4.386719 0.115722,-1.487488 0.222109,-2.976472 0.328125,-4.464844 0.09545,-1.483199 0.20711,-2.96423 0.326172,-4.445313 0.102924,-1.449086 0.204121,-2.897649 0.318359,-4.345703 0.107579,-1.430169 0.203511,-2.862736 0.310547,-4.292968 0.108077,-1.487483 0.200886,-2.975463 0.285156,-4.464844 0.07975,-1.528657 0.144159,-3.057682 0.230469,-4.585938 0.03801,-0.623331 0.08538,-1.247271 0.138672,-1.86914 3.689707,-2.074053 7.29956,-4.34317 10.75977,-6.861328 1.1142,-0.822251 2.15038,-1.767737 3.1289,-2.779297 0.82897,-0.872823 1.58801,-1.81988 2.30274,-2.808594 0.6062,-0.86394 1.13622,-1.785565 1.55859,-2.775391 0.33923,-0.795586 0.57015,-1.634964 0.62695,-2.513671 0.0343,-0.81391 -0.23039,-1.523015 -0.59179,-2.208985 -0.32302,-0.605354 -0.72816,-1.141098 -1.18164,-1.628906 -0.50221,-0.542253 -1.12433,-0.849691 -1.77344,-1.105469 -0.65062,-0.2638679 -1.32811,-0.4060292 -2.00977,-0.5253905 -0.35496,-0.070962 -0.7107,-0.097786 -1.06445,-0.085937 z m -5.714844,5.455078 c 0.633752,0.07901 1.271704,0.17736 1.886714,0.367188 0.54504,0.193621 1.09383,0.378219 1.53516,0.804687 0.41063,0.40783 0.7895,0.852473 1.07422,1.380859 0.27201,0.52349 0.43121,1.059284 0.34961,1.673829 -0.11762,0.761109 -0.347,1.488211 -0.66797,2.173828 -0.44097,0.904492 -0.9602,1.758297 -1.55078,2.550781 -0.71401,0.93456 -1.465231,1.83696 -2.287111,2.65625 -0.533202,0.516768 -1.078735,1.014503 -1.642578,1.488281 -1.149032,0.582018 -2.312629,1.124363 -3.515625,1.556641 -0.294714,0.105305 -0.592439,0.205444 -0.888672,0.30664 0.16212,-1.089652 0.343445,-2.175933 0.605469,-3.242187 0.25633,-1.050076 0.532133,-2.09478 0.863281,-3.119141 0.339832,-1.024831 0.690668,-2.04636 1.117188,-3.03125 0.41225,-0.951615 0.843491,-1.894212 1.332031,-2.800781 0.45998,-0.832667 0.953643,-1.638968 1.507813,-2.398437 0.09141,-0.124431 0.188513,-0.24381 0.28125,-0.367188 z m -3.697266,1.259766 c -2.143282,1.329091 -1.430304,0.828775 0,0 z"
       id="path4242"
       inkscape:connector-curvature="0"
       sodipodi:nodetypes="sccccccccccccccccccccccccccccccccccccccccccccccccccccccccccccccccccccccccccccccccccccccccccccccccccccccccccccccccccccccccccccccccccccccsccccccccccccccccccc" />
    <rect
       style="fill:#9b26af;fill-opacity:1;stroke:none;stroke-width:3;stroke-miterlimit:4;stroke-dasharray:none"
       id="rect9463"
       width="5"
       height="5"
       x="47.449902"
       y="62.259521" />
  </g>
</svg>
