<?xml version="1.0" encoding="UTF-8" standalone="no"?>
<!-- Created with Inkscape (http://www.inkscape.org/) -->
<svg id="svg2" xmlns:rdf="http://www.w3.org/1999/02/22-rdf-syntax-ns#" xmlns="http://www.w3.org/2000/svg" height="145" width="145" version="1.0" xmlns:cc="http://creativecommons.org/ns#" xmlns:xlink="http://www.w3.org/1999/xlink" xmlns:dc="http://purl.org/dc/elements/1.1/">
 <metadata id="metadata2193">
  <rdf:RDF>
   <cc:Work rdf:about="">
    <dc:format>image/svg+xml</dc:format>
    <dc:type rdf:resource="http://purl.org/dc/dcmitype/StillImage"/>
    <dc:title/>
   </cc:Work>
  </rdf:RDF>
 </metadata>
 <defs id="defs4">
  <linearGradient id="linearGradient3118" y2="137.27" gradientUnits="userSpaceOnUse" x2="112.03" gradientTransform="matrix(0.562541,0,0,0.567972,2.600251,-4.0803109)" y1="192.35" x1="150.96">
   <stop id="stop4673" stop-color="#ffd43b" offset="0"/>
   <stop id="stop4675" stop-color="#ffe873" offset="1"/>
  </linearGradient>
  <linearGradient id="linearGradient3121" y2="114.4" gradientUnits="userSpaceOnUse" x2="135.67" gradientTransform="matrix(0.562541,0,0,0.567972,2.600251,-4.0803109)" y1="20.604" x1="26.649">
   <stop id="stop4691" stop-color="#5a9fd4" offset="0"/>
   <stop id="stop4693" stop-color="#306998" offset="1"/>
  </linearGradient>
  <radialGradient id="radialGradient3131" gradientUnits="userSpaceOnUse" cy="132.29" cx="61.519" gradientTransform="matrix(1.7490565e-8,-0.23994696,1.054668,3.7915457e-7,-66.109429,146.08407)" r="29.037">
   <stop id="stop2797" stop-color="#b8b8b8" stop-opacity="0.49803922" offset="0"/>
   <stop id="stop2799" stop-color="#7f7f7f" stop-opacity="0" offset="1"/>
  </radialGradient>
 </defs>
 <path id="path1948" fill="url(#linearGradient3121)" d="m72.51,7.623c-4.5837,0.021298-8.9609,0.41222-12.812,1.0938-11.346,2.0045-13.406,6.2001-13.406,13.938v10.219h26.812v3.4062h-26.812-10.062c-7.7925,0-14.616,4.6837-16.75,13.594-2.4618,10.213-2.571,16.586,0,27.25,1.9059,7.9379,6.4575,13.594,14.25,13.594h9.2188v-12.25c0-8.8499,7.6571-16.656,16.75-16.656h26.781c7.455,0,13.406-6.1382,13.406-13.625v-25.531c0-7.2663-6.13-12.725-13.406-13.938-4.606-0.76673-9.3851-1.115-13.969-1.0938zm-14.5,8.2188c2.7695,0,5.0312,2.2986,5.0312,5.125-0.000002,2.8163-2.2617,5.0938-5.0312,5.0938-2.7795-0.000001-5.0312-2.2774-5.0312-5.0938-0.000001-2.8264,2.2518-5.125,5.0312-5.125z"/>
 <path id="path1950" fill="url(#linearGradient3118)" d="m103.23,36.279,0,11.906c0,9.2308-7.8259,17-16.75,17h-26.781c-7.3358,0-13.406,6.2785-13.406,13.625v25.531c0,7.2663,6.3186,11.54,13.406,13.625,8.4873,2.4956,16.626,2.9466,26.781,0,6.7502-1.9544,13.406-5.8876,13.406-13.625v-10.219h-26.781v-3.4062h26.781,13.406c7.7925,0,10.696-5.4354,13.406-13.594,2.7993-8.3989,2.6802-16.476,0-27.25-1.9258-7.7574-5.6039-13.594-13.406-13.594h-10.062zm-15.064,52.755c2.7795,0,5.0312,2.2774,5.0312,5.0938-0.000002,2.8264-2.2518,5.125-5.0312,5.125-2.7696,0-5.0312-2.2986-5.0312-5.125,0.000002-2.8163,2.2617-5.0938,5.0312-5.0938z"/>
 <path id="path1894" opacity="0.44382019" d="m109.34,131.32a35.931,6.9673,0,0,1,-71.862,0,35.931,6.9673,0,1,1,71.862,0z" fill-rule="nonzero" fill="url(#radialGradient3131)"/>
</svg>
